<?xml version="1.0" standalone="no"?>
<!DOCTYPE svg PUBLIC "-//W3C//DTD SVG 20010904//EN"
 "http://www.w3.org/TR/2001/REC-SVG-20010904/DTD/svg10.dtd">
<svg version="1.0" xmlns="http://www.w3.org/2000/svg"
 width="424.000000pt" height="424.000000pt" viewBox="0 0 424.000000 424.000000"
 preserveAspectRatio="xMidYMid meet">
<metadata>
Created by potrace 1.11, written by Peter Selinger 2001-2013
</metadata>
<g transform="translate(0.000000,424.000000) scale(0.100000,-0.100000)"
fill="#000000" stroke="none">
<path d="M642 3431 c-164 -180 -275 -349 -365 -561 -54 -127 -110 -321 -123
-430 -4 -25 -10 -65 -14 -90 -9 -48 -6 -398 3 -440 3 -14 8 -44 11 -68 3 -24
10 -60 15 -80 6 -20 12 -48 15 -62 3 -14 7 -34 10 -45 5 -24 64 -204 73 -225
3 -8 5 -18 5 -22 -1 -5 2 -8 8 -8 5 0 10 -6 10 -14 0 -8 16 -44 35 -80 19 -36
32 -66 27 -66 -4 0 -2 -4 3 -8 6 -4 28 -36 49 -72 22 -36 43 -66 48 -68 4 -2
8 -8 8 -14 0 -6 11 -24 25 -42 14 -17 29 -35 33 -41 72 -99 297 -325 323 -325
5 0 9 -3 9 -7 0 -5 17 -19 38 -33 20 -14 45 -32 55 -41 9 -9 30 -22 45 -30 15
-8 29 -16 32 -19 14 -14 240 -130 240 -124 0 3 10 -1 23 -8 12 -7 24 -13 27
-14 8 -1 43 -15 80 -30 47 -19 206 -64 250 -70 19 -3 46 -7 60 -10 74 -16 112
-18 295 -17 211 0 294 5 335 18 14 4 36 9 50 10 21 3 90 18 125 29 6 2 24 6
40 10 17 4 35 9 40 11 6 1 12 3 15 3 10 1 158 65 228 98 40 19 77 34 83 34 5
0 9 5 9 10 0 6 5 10 11 10 14 0 226 141 261 175 15 14 30 25 33 25 3 0 44 37
91 82 87 85 198 217 250 298 16 25 31 47 34 50 3 3 17 26 30 53 14 26 28 47
31 47 4 0 10 12 14 27 3 15 10 30 14 33 16 10 127 292 137 345 1 6 9 39 18 75
10 36 19 83 22 105 3 22 7 51 10 65 2 14 7 63 10 110 3 47 7 97 8 113 2 15 0
30 -5 33 -7 4 -254 8 -370 5 -34 -1 -35 -2 -38 -43 -7 -120 -13 -171 -26 -228
-3 -14 -8 -37 -10 -52 -8 -55 -80 -264 -106 -308 -4 -8 -20 -37 -34 -64 -14
-27 -39 -69 -55 -93 -17 -24 -30 -46 -30 -49 0 -3 -6 -11 -12 -19 -7 -7 -22
-25 -33 -41 -53 -75 -228 -253 -248 -254 -5 0 -15 -7 -24 -15 -30 -31 -233
-157 -253 -158 -3 0 -33 -13 -67 -29 -34 -16 -71 -30 -82 -31 -12 -1 -21 -5
-21 -10 0 -5 -6 -7 -14 -4 -7 3 -18 1 -22 -3 -8 -8 -84 -29 -163 -46 -71 -15
-395 -29 -414 -17 -5 3 -37 8 -71 10 -33 2 -63 7 -66 11 -3 4 -14 8 -25 9 -57
6 -123 24 -185 50 -8 3 -23 8 -33 10 -26 5 -171 74 -178 86 -3 5 -9 8 -13 7
-12 -2 -152 89 -185 120 -17 17 -35 30 -39 30 -5 0 -18 10 -29 23 -11 12 -29
29 -39 38 -78 66 -228 256 -260 329 -10 24 8 44 434 470 l446 446 359 -359
358 -359 26 23 c14 13 270 268 569 567 l543 544 200 -201 c110 -111 204 -201
208 -201 10 0 9 1057 -1 1067 -11 11 -160 9 -168 -2 -5 -7 -8 -6 -8 1 0 6 -17
9 -42 7 -53 -4 -42 -4 -165 -1 -65 2 -103 -1 -103 -7 0 -7 -3 -7 -8 0 -4 6
-25 9 -47 8 -58 -4 -54 -4 -122 0 -40 2 -63 -1 -63 -7 0 -7 -3 -8 -8 -1 -8 12
-251 13 -269 2 -7 -5 -13 -4 -13 0 0 5 -13 9 -30 8 -16 0 -30 -1 -30 -3 0 -1
90 -92 200 -202 110 -110 201 -204 202 -209 2 -6 -70 -84 -159 -174 -90 -90
-163 -162 -163 -161 0 1 -36 -35 -80 -81 -43 -45 -81 -81 -82 -79 -2 1 -12 -9
-23 -24 -10 -15 -51 -57 -91 -94 -40 -38 -72 -68 -70 -68 2 0 -43 -45 -99
-101 l-103 -100 -357 355 c-196 196 -359 356 -362 356 -3 0 -237 -232 -521
-516 -573 -572 -520 -532 -537 -416 -4 26 -10 61 -13 77 -3 17 -5 103 -6 191
0 162 7 216 45 349 11 39 22 80 24 91 9 39 83 208 120 274 42 75 155 226 215
286 l40 42 -67 70 c-38 38 -102 105 -144 149 l-76 79 -61 -65z"/>
</g>
</svg>
